<?xml version="1.0" encoding="UTF-8"?>
<svg width="127px" height="127px" viewBox="0 0 127 127" version="1.1" xmlns="http://www.w3.org/2000/svg" xmlns:xlink="http://www.w3.org/1999/xlink">
    <!-- Generator: Sketch 49 (51002) - http://www.bohemiancoding.com/sketch -->
    <title>Page 1</title>
    <desc>Created with Sketch.</desc>
    <defs>
        <polygon id="path-1" points="0 127 127 127 127 0 0 0"></polygon>
    </defs>
    <g id="PowerChain" stroke="none" stroke-width="1" fill="none" fill-rule="evenodd">
        <g id="Dashboard_my-version" transform="translate(-1121.000000, -139.000000)">
            <g id="Page-1" transform="translate(1121.000000, 139.000000)">
                <polygon id="Fill-1" fill="#FFFFFF" points="31.337 72.054 39.306 72.054 39.306 95.96 31.337 95.96"></polygon>
                <path d="M56.1929,81 L74.9569,81 C76.9289,81 78.3529,80.003 78.3529,78.03 C78.3529,76.059 76.9289,74 74.9569,74 L66.6169,74 C66.6169,74 62.4149,74.444 56.8369,71.257 C51.2589,68.069 38.1529,76 38.1529,76 L38.1529,92 C51.6999,88.016 60.0249,91.179 64.8059,91.179 C69.5869,91.179 73.5739,88.53 73.5739,88.53 L92.8519,78.656 C94.5959,77.736 95.2709,75.557 94.3509,73.812 C93.4309,72.067 91.2519,71.393 89.5069,72.312 L78.3529,77.632" id="Stroke-3" stroke="#cc9900" stroke-width="2" stroke-linecap="round" stroke-linejoin="round"></path>
                <mask id="mask-2" fill="white">
                    <use xlink:href="#path-1"></use>
                </mask>
                <g id="Clip-6"></g>
                <polygon id="Fill-5" fill="#e2ca8d" mask="url(#mask-2)" points="30.153 98 39.153 98 39.153 71 30.153 71"></polygon>
                <polygon id="Stroke-7" stroke="#cc9900" stroke-width="2" mask="url(#mask-2)" points="30.153 98 39.153 98 39.153 71 30.153 71"></polygon>
                <polygon id="Fill-8" fill="#e2ca8d" mask="url(#mask-2)" points="73.8682 41.7363 56.9022 65.9283 59.4152 45.0003 53.1322 45.0003 70.0972 21.0003 67.5842 41.7363"></polygon>
                <polygon id="Stroke-9" stroke="#cc9900" stroke-width="2" stroke-linecap="round" stroke-linejoin="round" mask="url(#mask-2)" points="74.3174 41.7725 56.9024 65.9285 59.4294 45.0005 52.4294 45.0005 70.0974 21.0005 68.0634 41.7725"></polygon>
                <path d="M57.2793,60.3301 C50.4203,57.7991 45.5293,51.2031 45.5293,43.4641 C45.5293,33.5391 53.5743,25.4931 63.5003,25.4931 C64.4403,25.4931 65.3633,25.5651 66.2643,25.7041" id="Stroke-10" stroke="#cc9900" stroke-width="2" mask="url(#mask-2)"></path>
                <path d="M69.7207,26.5986 C76.5797,29.1296 81.4707,35.7256 81.4707,43.4636 C81.4707,53.3896 73.4257,61.4356 63.4997,61.4356 C62.5597,61.4356 61.6367,61.3636 60.7357,61.2246" id="Stroke-11" stroke="#cc9900" stroke-width="2" mask="url(#mask-2)"></path>
                <path d="M126,63.5 C126,98.018 98.018,126 63.5,126 C28.982,126 1,98.018 1,63.5 C1,28.982 28.982,1 63.5,1 C98.018,1 126,28.982 126,63.5 Z" id="Stroke-12" stroke="#cc9900" stroke-width="2" mask="url(#mask-2)"></path>
            </g>
        </g>
    </g>
</svg>
