<?xml version="1.0" encoding="UTF-8" standalone="no"?>
<svg width="12px" height="9px" viewBox="0 0 12 9" version="1.1" xmlns="http://www.w3.org/2000/svg" xmlns:xlink="http://www.w3.org/1999/xlink">
    <!-- Generator: Sketch 48.2 (47327) - http://www.bohemiancoding.com/sketch -->
    <title>check</title>
    <desc>Created with Sketch.</desc>
    <defs>
        <linearGradient x1="-1.11022302e-14%" y1="50%" x2="100%" y2="50%" id="linearGradient-1">
            <stop stop-color="#48D376" offset="0%"></stop>
            <stop stop-color="#30ACC1" offset="100%"></stop>
        </linearGradient>
    </defs>
    <g id="Checkbox-Active" stroke="none" stroke-width="1" fill="none" fill-rule="evenodd" transform="translate(-2.000000, -3.000000)">
        <path d="M6.24901452,11.8066411 L2.66113245,8.24024334 C2.56087217,8.13998305 2.51074219,8.01107711 2.51074219,7.85352551 C2.51074219,7.69597391 2.56087217,7.56706797 2.66113245,7.46680768 L3.45605243,6.69337203 C3.55631272,6.57878908 3.68163783,6.52149744 3.8320281,6.52149744 C3.98241837,6.52149744 4.11490514,6.57878908 4.22948809,6.69337203 L6.63573235,9.09961629 L11.7919701,3.94337858 C11.906553,3.82879563 12.0390398,3.77150399 12.18943,3.77150399 C12.3398203,3.77150399 12.4651454,3.82879563 12.5654057,3.94337858 L13.3603257,4.71681424 C13.460586,4.81707453 13.510716,4.94598047 13.510716,5.10353207 C13.510716,5.26108367 13.460586,5.38998961 13.3603257,5.4902499 L7.02245018,11.8066411 C6.92218989,11.921224 6.79328395,11.9785157 6.63573235,11.9785157 C6.47818075,11.9785157 6.34927481,11.921224 6.24901452,11.8066411 Z" id="check" fill="url(#linearGradient-1)"></path>
    </g>
</svg>